<svg xmlns="http://www.w3.org/2000/svg" version="1.1" viewBox="143.771542 51.128938247863246 307.366 193.4551282051282" style="max-height: 500px" width="307.366" height="193.4551282051282">
<path transform="translate(206.125,67.6875)" fill="#52A269" d="M0 0 C1.30395028 1.08963319 2.60035882 2.18872215 3.875 3.3125 C4.535 1.0025 5.195 -1.3075 5.875 -3.6875 C18.415 -3.6875 30.955 -3.6875 43.875 -3.6875 C44.37 5.2225 44.37 5.2225 44.875 14.3125 C45.844375 13.11625 46.81375 11.92 47.8125 10.6875 C54.78964478 2.73974435 64.51632006 -3.06455151 75.25 -3.86450195 C91.58062502 -4.24573213 104.9890458 -3.96844211 117.875 7.3125 C124.25971783 14.0416217 126.1448939 20.71070984 126.0703125 29.99609375 C126.06531738 31.27798584 126.06032227 32.55987793 126.05517578 33.88061523 C126.03696777 35.48751221 126.01875977 37.09440918 126 38.75 C125.95875 43.885625 125.9175 49.02125 125.875 54.3125 C108.55 54.8075 108.55 54.8075 90.875 55.3125 C90.5 40.625 90.5 40.625 90.39697266 36.0168457 C90.34355713 34.2083313 90.34355713 34.2083313 90.2890625 32.36328125 C90.2576416 31.13262939 90.2262207 29.90197754 90.19384766 28.6340332 C89.88904965 25.45885945 89.23057799 23.17823943 87.875 20.3125 C86.225 20.3125 84.575 20.3125 82.875 20.3125 C81.39309124 23.27631751 81.71900957 26.29423886 81.71386719 29.54443359 C81.70890228 30.28932541 81.70393738 31.03421722 81.69882202 31.80168152 C81.68419011 34.27144283 81.67739674 36.74113992 81.671875 39.2109375 C81.66612443 40.92485557 81.66036669 42.63877362 81.65460205 44.35269165 C81.64408916 47.94899801 81.63824837 51.54528199 81.63476562 55.14160156 C81.62928 59.75084329 81.60525187 64.35978974 81.57679367 68.96893883 C81.55817413 72.51025253 81.55296206 76.05149502 81.55142975 79.59285355 C81.54840118 81.29212687 81.54036576 82.99139888 81.52724457 84.69062424 C81.51019789 87.06790408 81.51206064 89.44446126 81.51855469 91.82177734 C81.5093399 92.52426102 81.50012512 93.22674469 81.4906311 93.95051575 C81.51706904 97.0385677 81.73753222 99.06967509 83.27227783 101.78067017 C84.74646642 103.54281262 84.74646642 103.54281262 86.875 103.3125 C90.59631058 92.21878167 90.59498816 80.90282432 90.875 69.3125 C102.56066021 68.4841494 114.16110535 68.18919585 125.875 68.3125 C128.52873551 101.92338475 128.52873551 101.92338475 119.59765625 113.421875 C112.11988576 121.62877051 103.78464265 126.65012398 92.49414062 127.48950195 C64.64541933 128.18240729 64.64541933 128.18240729 53.5234375 118.890625 C49.83257496 115.35719262 47.18479617 111.93209234 44.875 107.3125 C44.545 128.1025 44.215 148.8925 43.875 170.3125 C31.005 170.3125 18.135 170.3125 4.875 170.3125 C4.545 152.4925 4.215 134.6725 3.875 116.3125 C1.235 118.6225 -1.405 120.9325 -4.125 123.3125 C-11.37728378 126.62392014 -20.40379897 126.38948623 -28 124.1875 C-33.87789306 121.86869815 -38.31780046 118.20432161 -41.4375 112.6875 C-46.01034282 101.92166513 -45.42296383 89.93133945 -45.390625 78.46484375 C-45.39197598 76.7595667 -45.3939201 75.05429003 -45.39642334 73.34901428 C-45.39935344 69.79473157 -45.39514508 66.24055013 -45.38574219 62.6862793 C-45.3743402 58.15877451 -45.38092536 53.63150674 -45.39288712 49.10401058 C-45.40015571 45.58901726 -45.39779511 42.07407903 -45.39263153 38.55908394 C-45.39130928 36.89073215 -45.39289205 35.22237516 -45.39759064 33.55402946 C-45.45275688 8.47285647 -45.45275688 8.47285647 -39.125 1.3125 C-27.74741491 -9.18016181 -12.23929088 -9.49169497 0 0 Z M-3.125 17.3125 C-5.53506576 20.92759864 -5.42084323 23.57217766 -5.41552734 27.74975586 C-5.42224457 28.50454727 -5.42896179 29.25933868 -5.43588257 30.03700256 C-5.45489144 32.53384978 -5.45878806 35.03042866 -5.4609375 37.52734375 C-5.46736299 39.26225394 -5.47409117 40.99716303 -5.48110962 42.73207092 C-5.49308929 46.36950188 -5.49678969 50.00683781 -5.49560547 53.64428711 C-5.49540214 58.30630892 -5.52271525 62.96772209 -5.55714989 67.62959957 C-5.57938115 71.2129649 -5.58344419 74.79618282 -5.58238602 78.37961006 C-5.58474725 80.09842593 -5.59360013 81.81724553 -5.60905075 83.53599358 C-5.6286369 85.93971343 -5.62290295 88.34210865 -5.61083984 90.74584961 C-5.62207886 91.45611298 -5.63331787 92.16637634 -5.64489746 92.89816284 C-5.60135502 96.31070328 -5.33365632 98.04100585 -3.22744751 100.7815094 C-1.27185554 102.50832996 -1.27185554 102.50832996 1 102.375 C3.71884845 100.83431921 3.95176858 99.27318389 4.875 96.3125 C5.17693962 92.89171979 5.17693962 92.89171979 5.13378906 89.12304688 C5.1372937 88.41833755 5.14079834 87.71362823 5.14440918 86.98756409 C5.15317887 84.66869117 5.14739433 82.35012578 5.140625 80.03125 C5.14197302 78.4136957 5.1439147 76.79614179 5.14642334 75.17858887 C5.14936815 71.79268527 5.14509769 68.40688738 5.13574219 65.02099609 C5.124348 60.68662857 5.13091092 56.35250877 5.14288712 52.01815033 C5.1501231 48.67924136 5.1478098 45.34039086 5.14263153 42.0014801 C5.14129985 40.40352855 5.14292587 38.80557164 5.14759064 37.20762634 C5.15268451 34.9722594 5.14490577 32.73729052 5.13378906 30.50195312 C5.13219788 29.23130005 5.13060669 27.96064697 5.12896729 26.65148926 C4.86665973 23.20284778 4.42006257 19.85756257 1.875 17.3125 C-0.58292029 16.97906449 -0.58292029 16.97906449 -3.125 17.3125 Z"/>
<path transform="translate(151,54)" fill="#52A269" d="M0 0 C60.06 0 120.12 0 182 0 C182 0.66 182 1.32 182 2 C122.93 2 63.86 2 3 2 C3 61.4 3 120.8 3 182 C16.53 182 30.06 182 44 182 C44 182.99 44 183.98 44 185 C29.48 185 14.96 185 0 185 C0 123.95 0 62.9 0 0 Z"/>
<path transform="translate(297,203)" fill="#52A269" d="M0 0 C3 1 3 1 4.38671875 3.72265625 C4.81597656 4.82480469 5.24523437 5.92695313 5.6875 7.0625 C6.34298828 8.71958984 6.34298828 8.71958984 7.01171875 10.41015625 C7.33785156 11.26480469 7.66398437 12.11945313 8 13 C8.66 13 9.32 13 10 13 C10.02696365 11.20841511 10.04637917 9.41671527 10.0625 7.625 C10.07410156 6.62726563 10.08570313 5.62953125 10.09765625 4.6015625 C10.18006602 2.01567547 10.18006602 2.01567547 9 0 C11.64 0 14.28 0 17 0 C16.34 0.66 15.68 1.32 15 2 C14.75712511 4.44012949 14.75712511 4.44012949 14.875 7.125 C14.90207031 8.49011719 14.90207031 8.49011719 14.9296875 9.8828125 C14.95289063 10.58148438 14.97609375 11.28015625 15 12 C16.32 12.33 17.64 12.66 19 13 C19.66 12.01 20.32 11.02 21 10 C21.66 10 22.32 10 23 10 C23.020625 8.72125 23.04125 7.4425 23.0625 6.125 C23.07410156 5.40570313 23.08570313 4.68640625 23.09765625 3.9453125 C23.12649242 1.91814596 23.12649242 1.91814596 22 0 C31.9 0 41.8 0 52 0 C51.34 0.33 50.68 0.66 50 1 C51.3089572 4.12197478 51.3089572 4.12197478 54 6 C55.01111093 2.95086772 55.01111093 2.95086772 54 0 C55.98 0 57.96 0 60 0 C59.55527344 0.51949219 59.11054688 1.03898438 58.65234375 1.57421875 C55.03416991 5.71597452 55.03416991 5.71597452 54.0625 10.875 C54.67567793 12.26486997 55.32062887 13.64125773 56 15 C53.36 15 50.72 15 48 15 C48.33 14.34 48.66 13.68 49 13 C49.30343947 9.51044604 49.39470082 7.62494296 47.5 4.625 C47.005 4.08875 46.51 3.5525 46 3 C45.34 3.66 44.68 4.32 44 5 C43.319375 4.2884375 43.319375 4.2884375 42.625 3.5625 C41.06741796 1.90972192 41.06741796 1.90972192 39 1 C39.14076315 2.9587043 39.2877676 4.91696093 39.4375 6.875 C39.51871094 7.96554688 39.59992188 9.05609375 39.68359375 10.1796875 C39.83001703 12.94728971 39.83001703 12.94728971 41 15 C38.36 15 35.72 15 33 15 C33.66 14.34 34.32 13.68 35 13 C35.46396693 10.10776497 35.46396693 10.10776497 35.625 6.875 C35.69976562 5.77929688 35.77453125 4.68359375 35.8515625 3.5546875 C35.90054688 2.71164063 35.94953125 1.86859375 36 1 C32.87802522 2.3089572 32.87802522 2.3089572 31 5 C30.34 5 29.68 5 29 5 C28.979375 6.27875 28.95875 7.5575 28.9375 8.875 C28.92589844 9.59429687 28.91429687 10.31359375 28.90234375 11.0546875 C28.87350758 13.08185404 28.87350758 13.08185404 30 15 C20.76 15 11.52 15 2 15 C2.33 14.01 2.66 13.02 3 12 C2.67 11.34 2.34 10.68 2 10 C-0.02463255 9.34786708 -0.02463255 9.34786708 -2 9 C-1.67 10.98 -1.34 12.96 -1 15 C-2.98 15 -4.96 15 -7 15 C-6.401875 13.824375 -5.80375 12.64875 -5.1875 11.4375 C-3.30526646 7.67973126 -1.61620564 3.87889353 0 0 Z M0 5 C-0.33 5.99 -0.66 6.98 -1 8 C-0.01 7.67 0.98 7.34 2 7 C1.34 6.34 0.68 5.68 0 5 Z"/>
<path transform="translate(373.06640625,222.44140625)" fill="#52A269" d="M0 0 C1.15371094 0.03996094 2.30742187 0.07992187 3.49609375 0.12109375 C4.65238281 0.14300781 5.80867188 0.16492188 7 0.1875 C9.93359375 0.55859375 9.93359375 0.55859375 11.93359375 2.55859375 C11.93359375 3.87859375 11.93359375 5.19859375 11.93359375 6.55859375 C13.25359375 6.55859375 14.57359375 6.55859375 15.93359375 6.55859375 C16.26359375 7.87859375 16.59359375 9.19859375 16.93359375 10.55859375 C16.93359375 9.23859375 16.93359375 7.91859375 16.93359375 6.55859375 C17.57296875 6.43484375 18.21234375 6.31109375 18.87109375 6.18359375 C19.55171875 5.97734375 20.23234375 5.77109375 20.93359375 5.55859375 C21.26359375 4.89859375 21.59359375 4.23859375 21.93359375 3.55859375 C22.59359375 3.55859375 23.25359375 3.55859375 23.93359375 3.55859375 C23.93359375 4.54859375 23.93359375 5.53859375 23.93359375 6.55859375 C24.59359375 6.88859375 25.25359375 7.21859375 25.93359375 7.55859375 C25.27359375 7.55859375 24.61359375 7.55859375 23.93359375 7.55859375 C23.93359375 9.53859375 23.93359375 11.51859375 23.93359375 13.55859375 C24.92359375 13.55859375 25.91359375 13.55859375 26.93359375 13.55859375 C26.96083525 12.14203582 26.98009842 10.7253233 26.99609375 9.30859375 C27.00769531 8.5196875 27.01929688 7.73078125 27.03125 6.91796875 C26.93744681 4.65168373 26.56600438 2.72970425 25.93359375 0.55859375 C28.93359375 1.55859375 28.93359375 1.55859375 30.12109375 3.12109375 C31.28298892 6.60677925 31.4270942 9.9467426 30.93359375 13.55859375 C29.43359375 16.55859375 29.43359375 16.55859375 27.93359375 18.55859375 C27.27359375 18.22859375 26.61359375 17.89859375 25.93359375 17.55859375 C26.26359375 16.89859375 26.59359375 16.23859375 26.93359375 15.55859375 C24.95359375 15.55859375 22.97359375 15.55859375 20.93359375 15.55859375 C20.60359375 13.57859375 20.27359375 11.59859375 19.93359375 9.55859375 C18.94359375 11.53859375 17.95359375 13.51859375 16.93359375 15.55859375 C13.93359375 14.55859375 13.93359375 14.55859375 12.24609375 11.49609375 C11.81296875 10.52671875 11.37984375 9.55734375 10.93359375 8.55859375 C8.62359375 8.55859375 6.31359375 8.55859375 3.93359375 8.55859375 C4.27586947 11.52924884 4.27586947 11.52924884 4.93359375 14.55859375 C5.59359375 14.88859375 6.25359375 15.21859375 6.93359375 15.55859375 C4.29359375 15.55859375 1.65359375 15.55859375 -1.06640625 15.55859375 C-0.73640625 14.89859375 -0.40640625 14.23859375 -0.06640625 13.55859375 C0.00393144 11.6847977 0.01789595 9.80858273 -0.00390625 7.93359375 C-0.01744141 6.42925781 -0.01744141 6.42925781 -0.03125 4.89453125 C-0.04285156 4.12367188 -0.05445313 3.3528125 -0.06640625 2.55859375 C-0.72640625 2.22859375 -1.38640625 1.89859375 -2.06640625 1.55859375 C-2.09350069 3.64185506 -2.11284498 5.72521816 -2.12890625 7.80859375 C-2.14050781 8.96875 -2.15210938 10.12890625 -2.1640625 11.32421875 C-2.08422717 13.96836503 -1.85284403 16.05685466 -1.06640625 18.55859375 C-4.06640625 17.55859375 -4.06640625 17.55859375 -5.25390625 15.99609375 C-6.80847687 11.3323819 -6.7805564 7.31379377 -4.95703125 2.83203125 C-3.06640625 0.55859375 -3.06640625 0.55859375 0 0 Z M3.93359375 1.55859375 C3.93359375 3.53859375 3.93359375 5.51859375 3.93359375 7.55859375 C5.25359375 7.22859375 6.57359375 6.89859375 7.93359375 6.55859375 C7.93359375 5.23859375 7.93359375 3.91859375 7.93359375 2.55859375 C6.61359375 2.22859375 5.29359375 1.89859375 3.93359375 1.55859375 Z"/>
<path transform="translate(278,223)" fill="#52A269" d="M0 0 C0.66 0 1.32 0 2 0 C3.98 4.29 5.96 8.58 8 13 C8.66 13 9.32 13 10 13 C10.05391993 11.20866022 10.09275571 9.41686101 10.125 7.625 C10.14820313 6.62726563 10.17140625 5.62953125 10.1953125 4.6015625 C10.27216848 1.83737827 10.27216848 1.83737827 8 0 C9.97909398 -0.02686553 11.95828971 -0.04633375 13.9375 -0.0625 C15.03964844 -0.07410156 16.14179688 -0.08570313 17.27734375 -0.09765625 C20 0 20 0 21 1 C21.1613058 4.06481021 20.98150241 6.05549278 20 9 C21.37492804 12.1668838 21.37492804 12.1668838 23 15 C20.6875 14.8125 20.6875 14.8125 18 14 C16.1875 11.4375 16.1875 11.4375 15 9 C15 10.32 15 11.64 15 13 C15.66 13.66 16.32 14.32 17 15 C11.72 15 6.44 15 1 15 C1.66 14.67 2.32 14.34 3 14 C2.67 12.68 2.34 11.36 2 10 C0.68 9.67 -0.64 9.34 -2 9 C-1.67 10.98 -1.34 12.96 -1 15 C-2.98 15 -4.96 15 -7 15 C-3.535 7.575 -3.535 7.575 0 0 Z M14 1 C14 2.98 14 4.96 14 7 C15.32 6.67 16.64 6.34 18 6 C18 4.68 18 3.36 18 2 C16.68 1.67 15.36 1.34 14 1 Z M-1 5 C-1 5.99 -1 6.98 -1 8 C-0.34 8 0.32 8 1 8 C1 7.01 1 6.02 1 5 C0.34 5 -0.32 5 -1 5 Z"/>
<path transform="translate(270,203)" fill="#52A269" d="M0 0 C2.5 1.5625 2.5 1.5625 4 4 C4.46337203 8.40203429 4.48038907 10.2794164 2 14 C1.34 14 0.68 14 0 14 C0 14.66 0 15.32 0 16 C1.65 15.01 3.3 14.02 5 13 C4.125 16.875 4.125 16.875 3 18 C-2.93896156 18.5399056 -5.71615352 16.72831625 -10.3125 13.25 C-12.73199431 10.02400759 -12.5616013 7.93120911 -12 4 C-9.10500071 -0.70437385 -5.08928147 -1.01159898 0 0 Z M-7.125 2.625 C-9.47736015 5.60465619 -9.33663062 7.29706315 -9 11 C-4.87851657 12.82660197 -4.87851657 12.82660197 -0.625 12.125 C-0.08875 11.75375 0.4475 11.3825 1 11 C1.33663062 7.29706315 1.47736015 5.60465619 -0.875 2.625 C-3.73611465 0.4370888 -4.26388535 0.4370888 -7.125 2.625 Z"/>
<path transform="translate(411,223)" fill="#52A269" d="M0 0 C2.64 0 5.28 0 8 0 C7.34 0.66 6.68 1.32 6 2 C5.75712511 4.44012949 5.75712511 4.44012949 5.875 7.125 C5.89304687 8.03507813 5.91109375 8.94515625 5.9296875 9.8828125 C5.95289063 10.58148438 5.97609375 11.28015625 6 12 C7.32 12.33 8.64 12.66 10 13 C12.15241303 10.23545234 12.15241303 10.23545234 12.375 7.4375 C13 5 13 5 15.0625 3.6875 C15.701875 3.460625 16.34125 3.23375 17 3 C17 3.99 17 4.98 17 6 C17.66 6.33 18.32 6.66 19 7 C18.34 7 17.68 7 17 7 C17.56739868 11.12973628 17.56739868 11.12973628 19 15 C12.73 15 6.46 15 0 15 C0.33 14.34 0.66 13.68 1 13 C1.09608608 11.16871229 1.12982579 9.33380041 1.125 7.5 C1.12757813 6.5203125 1.13015625 5.540625 1.1328125 4.53125 C1.16940053 2.00568946 1.16940053 2.00568946 0 0 Z"/>
<path transform="translate(333,223)" fill="#52A269" d="M0 0 C2.125 -0.4375 2.125 -0.4375 5 0 C7.276147 2.12689146 9.1458722 4.5023433 11 7 C11.15149298 3.37114676 11.15149298 3.37114676 10 0 C12.31 0 14.62 0 17 0 C16.34 0.66 15.68 1.32 15 2 C14.53513282 5.12196336 14.53513282 5.12196336 14.375 8.625 C14.30023438 9.81351563 14.22546875 11.00203125 14.1484375 12.2265625 C14.09945313 13.14179688 14.05046875 14.05703125 14 15 C10.51127585 13.83709195 9.90023136 12.86032391 7.8125 9.9375 C7.28269531 9.20402344 6.75289063 8.47054687 6.20703125 7.71484375 C5.80871094 7.14894531 5.41039062 6.58304688 5 6 C4.73067479 10.65052872 4.73067479 10.65052872 6 15 C4.02 15 2.04 15 0 15 C0.33 14.34 0.66 13.68 1 13 C1.09608608 11.16871229 1.12982579 9.33380041 1.125 7.5 C1.12757813 6.5203125 1.13015625 5.540625 1.1328125 4.53125 C1.16940053 2.00568946 1.16940053 2.00568946 0 0 Z"/>
<path transform="translate(324.5625,222.4375)" fill="#52A269" d="M0 0 C3.4375 0.5625 3.4375 0.5625 5.875 2.125 C8.04146028 5.50467804 8.00038002 7.62233987 7.4375 11.5625 C5.9375 14 5.9375 14 3.4375 15.5625 C-0.63779338 16.37254807 -3.55172596 16.21950312 -7.0625 13.9375 C-9.04448314 10.79936002 -9.23314058 9.21376535 -8.5625 5.5625 C-5.92388121 1.88442532 -4.50182231 0.71081405 0 0 Z M-3.8125 3.125 C-5.96108007 5.57232848 -5.96108007 5.57232848 -5.3125 9.3125 C-5.065 10.385 -4.8175 11.4575 -4.5625 12.5625 C-2.29648135 13.85292763 -2.29648135 13.85292763 0.4375 14.5625 C2.8982536 13.78000908 2.8982536 13.78000908 4.4375 11.5625 C5.03113153 6.83203467 5.03113153 6.83203467 3.125 2.625 C0.30363156 0.84858283 -1.15945155 1.28260524 -3.8125 3.125 Z"/>
<path transform="translate(436,223)" fill="#52A269" d="M0 0 C1.32 0 2.64 0 4 0 C4.33 4.29 4.66 8.58 5 13 C6.32 12.67 7.64 12.34 9 12 C9 12.99 9 13.98 9 15 C4.38 15 -0.24 15 -5 15 C-5.625 11.625 -5.625 11.625 -6 8 C-4 6 -4 6 -1.375 5.875 C-0.59125 5.91625 0.1925 5.9575 1 6 C0.34 4.35 -0.32 2.7 -1 1 C-0.67 0.67 -0.34 0.34 0 0 Z M-2 7 C-3.29633621 8.06645115 -3.29633621 8.06645115 -3.0625 10.5625 C-3.041875 11.366875 -3.02125 12.17125 -3 13 C-1.68 13 -0.36 13 1 13 C1 11.35 1 9.7 1 8 C0.01 7.67 -0.98 7.34 -2 7 Z"/>
<path transform="translate(274,203)" fill="#52A269" d="M0 0 C2.64 0 5.28 0 8 0 C7.67 0.66 7.34 1.32 7 2 C6.7724985 3.87056791 6.59037189 5.74685958 6.4375 7.625 C6.31181641 9.12933594 6.31181641 9.12933594 6.18359375 10.6640625 C6.12300781 11.43492187 6.06242187 12.20578125 6 13 C7.66611905 13.042721 9.33382885 13.04063832 11 13 C12.24738223 11.97378893 12.24738223 11.97378893 12.1328125 9.78515625 C12.13023437 8.88667969 12.12765625 7.98820313 12.125 7.0625 C12.12757813 6.16660156 12.13015625 5.27070313 12.1328125 4.34765625 C12.15421413 1.97844445 12.15421413 1.97844445 11 0 C13.31 0 15.62 0 18 0 C17.34 0.66 16.68 1.32 16 2 C15.61195187 4.59706093 15.61195187 4.59706093 15.5 7.5 C15.22222222 12.77777778 15.22222222 12.77777778 13 15 C11.125 15.265625 11.125 15.265625 9 15.25 C8.29875 15.25515625 7.5975 15.2603125 6.875 15.265625 C5 15 5 15 3 13 C2.61652374 10.17622023 2.49348878 7.3762869 2.34375 4.53125 C2.23761325 1.83393203 2.23761325 1.83393203 0 0 Z"/>
<path transform="translate(300,223)" fill="#52A269" d="M0 0 C5.28 0 10.56 0 16 0 C16 1.65 16 3.3 16 5 C14.02 3.68 12.04 2.36 10 1 C10 5.29 10 9.58 10 14 C10.66 14.33 11.32 14.66 12 15 C9.36 15 6.72 15 4 15 C4.33 14.34 4.66 13.68 5 13 C5.22858114 10.9625237 5.41024278 8.91959697 5.5625 6.875 C5.64628906 5.77929688 5.73007812 4.68359375 5.81640625 3.5546875 C5.87699219 2.71164063 5.93757813 1.86859375 6 1 C4.01508358 1.26676204 4.01508358 1.26676204 2 2 C1.67 2.99 1.34 3.98 1 5 C0.67 5 0.34 5 0 5 C0 3.35 0 1.7 0 0 Z"/>
<path transform="translate(355.5625,222.9375)" fill="#52A269" d="M0 0 C1.134375 0.020625 2.26875 0.04125 3.4375 0.0625 C3.1075 1.3825 2.7775 2.7025 2.4375 4.0625 C1.1175 3.4025 -0.2025 2.7425 -1.5625 2.0625 C-1.5625 2.7225 -1.5625 3.3825 -1.5625 4.0625 C0.39897874 5.45188077 2.39916576 6.7885411 4.4375 8.0625 C3.5625 13.9375 3.5625 13.9375 2.4375 15.0625 C0.91821962 15.13429964 -0.60417482 15.14642007 -2.125 15.125 C-2.95128906 15.11597656 -3.77757812 15.10695312 -4.62890625 15.09765625 C-5.26699219 15.08605469 -5.90507812 15.07445312 -6.5625 15.0625 C-6.2325 13.4125 -5.9025 11.7625 -5.5625 10.0625 C-4.77875 10.5575 -3.995 11.0525 -3.1875 11.5625 C-0.77697673 13.22787965 -0.77697673 13.22787965 1.4375 13.0625 C-0.01505699 9.23303157 -1.99145561 7.94199705 -5.5625 6.0625 C-4.48849278 0.07874549 -4.48849278 0.07874549 0 0 Z"/>
<path transform="translate(271,223)" fill="#52A269" d="M0 0 C0.33 1.65 0.66 3.3 1 5 C0.01 4.67 -0.98 4.34 -2 4 C-2 3.34 -2 2.68 -2 2 C-4.97065509 2.34227572 -4.97065509 2.34227572 -8 3 C-9.38125018 5.76250036 -9.19079306 7.94731099 -9 11 C-7.16116119 13.28728734 -7.16116119 13.28728734 -4.375 13.125 C-3.59125 13.08375 -2.8075 13.0425 -2 13 C-1.67 12.01 -1.34 11.02 -1 10 C-0.34 10.33 0.32 10.66 1 11 C-0.0625 13 -0.0625 13 -2 15 C-5.91795996 15.56988508 -8.07240983 15.59460908 -11.4375 13.4375 C-13.60396028 10.05782196 -13.56288002 7.94016013 -13 4 C-9.93472556 -1.19763927 -5.39221271 -0.41478559 0 0 Z"/>
</svg>